HIERARCHY
ROOT Root
{
  OFFSET 0.0 0.0 0.0
  CHANNELS 6 Xposition Yposition Zposition Zrotation Yrotation Xrotation
  JOINT Hips
  {
    OFFSET 0.0 100.0 0.0
    CHANNELS 6 Xposition Yposition Zposition Zrotation Yrotation Xrotation
    JOINT Spine1
    {
      OFFSET -0.013727 5.003763 -0.053727
      CHANNELS 3 Zrotation Yrotation Xrotation
      JOINT Spine2
      {
        OFFSET -0.0 7.125301 -0.029825
        CHANNELS 3 Zrotation Yrotation Xrotation
        JOINT Chest
        {
          OFFSET -1e-06 7.550063 -0.815971
          CHANNELS 3 Zrotation Yrotation Xrotation
          JOINT Neck1
          {
            OFFSET -0.181677 26.311295 -0.553348
            CHANNELS 3 Zrotation Yrotation Xrotation
            JOINT Neck2
            {
              OFFSET -3e-06 7.709397 2.302585
              CHANNELS 3 Zrotation Yrotation Xrotation
              JOINT Head
              {
                OFFSET -5e-06 6.128916 1.953709
                CHANNELS 3 Zrotation Yrotation Xrotation
                JOINT HeadEnd
                {
                  OFFSET 0.003598 16.065403 -1.835379
                  CHANNELS 3 Zrotation Yrotation Xrotation
                }
                JOINT Jaw
                {
                  OFFSET 0.002637 0.475592 3.094941
                  CHANNELS 3 Zrotation Yrotation Xrotation
                }
                JOINT LeftEye
                {
                  OFFSET 3.206381 5.380205 7.586883
                  CHANNELS 3 Zrotation Yrotation Xrotation
                }
                JOINT RightEye
                {
                  OFFSET -3.22244 5.361869 7.558234
                  CHANNELS 3 Zrotation Yrotation Xrotation
                }
              }
            }
          }
          JOINT LeftShoulder
          {
            OFFSET 1.621652 23.237164 5.113413
            CHANNELS 3 Zrotation Yrotation Xrotation
            JOINT LeftArm
            {
              OFFSET 14.919846 2e-06 -5.502326
              CHANNELS 3 Zrotation Yrotation Xrotation
              JOINT LeftForeArm
              {
                OFFSET 28.739307 0.0 -0.002588
                CHANNELS 3 Zrotation Yrotation Xrotation
                JOINT LeftHand
                {
                  OFFSET 27.093981 -1e-06 0.002609
                  CHANNELS 3 Zrotation Yrotation Xrotation
                  JOINT LeftHandThumb1
                  {
                    OFFSET 2.276482 -1.392045 3.191413
                    CHANNELS 3 Zrotation Yrotation Xrotation
                    JOINT LeftHandThumb2
                    {
                      OFFSET 4.012836 -1.828127 1.641654
                      CHANNELS 3 Zrotation Yrotation Xrotation
                      JOINT LeftHandThumb3
                      {
                        OFFSET 2.798515 0.0 -3e-06
                        CHANNELS 3 Zrotation Yrotation Xrotation
                        JOINT LeftHandThumbEnd
                        {
                          OFFSET 3.180793 -4e-06 4e-06
                          CHANNELS 3 Zrotation Yrotation Xrotation
                        }
                      }
                    }
                  }
                  JOINT LeftHandIndex1
                  {
                    OFFSET 3.247555 -0.531998 2.296169
                    CHANNELS 3 Zrotation Yrotation Xrotation
                    JOINT LeftHandIndex2
                    {
                      OFFSET 6.364578 0.01206 0.1786
                      CHANNELS 3 Zrotation Yrotation Xrotation
                      JOINT LeftHandIndex3
                      {
                        OFFSET 3.662364 0.0 0.0
                        CHANNELS 3 Zrotation Yrotation Xrotation
                        JOINT LeftHandIndex4
                        {
                          OFFSET 2.329242 4e-06 4e-06
                          CHANNELS 3 Zrotation Yrotation Xrotation
                          JOINT LeftHandIndexEnd
                          {
                            OFFSET 2.759615 -0.180537 -0.113024
                            CHANNELS 3 Zrotation Yrotation Xrotation
                          }
                        }
                      }
                    }
                  }
                  JOINT LeftHandMiddle1
                  {
                    OFFSET 3.163495 0.240981 1.000332
                    CHANNELS 3 Zrotation Yrotation Xrotation
                    JOINT LeftHandMiddle2
                    {
                      OFFSET 6.19078 -0.259278 -1.002548
                      CHANNELS 3 Zrotation Yrotation Xrotation
                      JOINT LeftHandMiddle3
                      {
                        OFFSET 4.35652 -4e-06 -1e-06
                        CHANNELS 3 Zrotation Yrotation Xrotation
                        JOINT LeftHandMiddle4
                        {
                          OFFSET 2.996877 -8e-06 0.0
                          CHANNELS 3 Zrotation Yrotation Xrotation
                          JOINT LeftHandMiddleEnd
                          {
                            OFFSET 2.304287 -0.294569 -0.031741
                            CHANNELS 3 Zrotation Yrotation Xrotation
                          }
                        }
                      }
                    }
                  }
                  JOINT LeftHandRing1
                  {
                    OFFSET 2.882643 -0.053652 -0.322543
                    CHANNELS 3 Zrotation Yrotation Xrotation
                    JOINT LeftHandRing2
                    {
                      OFFSET 5.854541 -0.486202 -1.373841
                      CHANNELS 3 Zrotation Yrotation Xrotation
                      JOINT LeftHandRing3
                      {
                        OFFSET 4.350578 0.0 3e-06
                        CHANNELS 3 Zrotation Yrotation Xrotation
                        JOINT LeftHandRing4
                        {
                          OFFSET 2.651321 7e-06 2e-06
                          CHANNELS 3 Zrotation Yrotation Xrotation
                          JOINT LeftHandRingEnd
                          {
                            OFFSET 1.936105 0.077687 -7.1e-05
                            CHANNELS 3 Zrotation Yrotation Xrotation
                          }
                        }
                      }
                    }
                  }
                  JOINT LeftHandPinky1
                  {
                    OFFSET 2.8655 -0.310005 -1.600378
                    CHANNELS 3 Zrotation Yrotation Xrotation
                    JOINT LeftHandPinky2
                    {
                      OFFSET 5.087849 -1.331141 -1.77123
                      CHANNELS 3 Zrotation Yrotation Xrotation
                      JOINT LeftHandPinky3
                      {
                        OFFSET 3.070974 4e-06 0.0
                        CHANNELS 3 Zrotation Yrotation Xrotation
                        JOINT LeftHandPinky4
                        {
                          OFFSET 1.549672 0.0 1e-06
                          CHANNELS 3 Zrotation Yrotation Xrotation
                          JOINT LeftHandPinkyEnd
                          {
                            OFFSET 1.944893 -0.157802 0.057219
                            CHANNELS 3 Zrotation Yrotation Xrotation
                          }
                        }
                      }
                    }
                  }
                }
              }
            }
          }
          JOINT RightShoulder
          {
            OFFSET -1.380118 23.180309 5.214158
            CHANNELS 3 Zrotation Yrotation Xrotation
            JOINT RightArm
            {
              OFFSET -15.037196 1.2e-05 -5.545604
              CHANNELS 3 Zrotation Yrotation Xrotation
              JOINT RightForeArm
              {
                OFFSET -28.736639 2e-06 -0.002597
                CHANNELS 3 Zrotation Yrotation Xrotation
                JOINT RightHand
                {
                  OFFSET -27.133619 -0.0 0.002613
                  CHANNELS 3 Zrotation Yrotation Xrotation
                  JOINT RightHandThumb1
                  {
                    OFFSET -2.274032 -1.383988 3.163127
                    CHANNELS 3 Zrotation Yrotation Xrotation
                    JOINT RightHandThumb2
                    {
                      OFFSET -4.011429 -1.827466 1.640914
                      CHANNELS 3 Zrotation Yrotation Xrotation
                      JOINT RightHandThumb3
                      {
                        OFFSET -2.794935 -4e-06 -3e-06
                        CHANNELS 3 Zrotation Yrotation Xrotation
                        JOINT RightHandThumbEnd
                        {
                          OFFSET -3.183852 4e-06 1e-06
                          CHANNELS 3 Zrotation Yrotation Xrotation
                        }
                      }
                    }
                  }
                  JOINT RightHandIndex1
                  {
                    OFFSET -3.253266 -0.520057 2.282866
                    CHANNELS 3 Zrotation Yrotation Xrotation
                    JOINT RightHandIndex2
                    {
                      OFFSET -6.341917 0.012471 0.178266
                      CHANNELS 3 Zrotation Yrotation Xrotation
                      JOINT RightHandIndex3
                      {
                        OFFSET -3.654871 -8e-06 -0.0
                        CHANNELS 3 Zrotation Yrotation Xrotation
                        JOINT RightHandIndex4
                        {
                          OFFSET -2.327586 0.0 1e-06
                          CHANNELS 3 Zrotation Yrotation Xrotation
                          JOINT RightHandIndexEnd
                          {
                            OFFSET -2.76179 -0.180656 -0.113078
                            CHANNELS 3 Zrotation Yrotation Xrotation
                          }
                        }
                      }
                    }
                  }
                  JOINT RightHandMiddle1
                  {
                    OFFSET -3.168106 0.246593 1.00103
                    CHANNELS 3 Zrotation Yrotation Xrotation
                    JOINT RightHandMiddle2
                    {
                      OFFSET -6.180828 -0.258836 -1.000895
                      CHANNELS 3 Zrotation Yrotation Xrotation
                      JOINT RightHandMiddle3
                      {
                        OFFSET -4.348901 0.0 -0.0
                        CHANNELS 3 Zrotation Yrotation Xrotation
                        JOINT RightHandMiddle4
                        {
                          OFFSET -3.00024 -4e-06 -2e-06
                          CHANNELS 3 Zrotation Yrotation Xrotation
                          JOINT RightHandMiddleEnd
                          {
                            OFFSET -2.30252 -0.29437 -0.031706
                            CHANNELS 3 Zrotation Yrotation Xrotation
                          }
                        }
                      }
                    }
                  }
                  JOINT RightHandRing1
                  {
                    OFFSET -2.88569 -0.067952 -0.308858
                    CHANNELS 3 Zrotation Yrotation Xrotation
                    JOINT RightHandRing2
                    {
                      OFFSET -5.854198 -0.48613 -1.373731
                      CHANNELS 3 Zrotation Yrotation Xrotation
                      JOINT RightHandRing3
                      {
                        OFFSET -4.33881 -4e-06 -0.0
                        CHANNELS 3 Zrotation Yrotation Xrotation
                        JOINT RightHandRing4
                        {
                          OFFSET -2.654903 -4e-06 4e-06
                          CHANNELS 3 Zrotation Yrotation Xrotation
                          JOINT RightHandRingEnd
                          {
                            OFFSET -1.933568 0.077527 -5.2e-05
                            CHANNELS 3 Zrotation Yrotation Xrotation
                          }
                        }
                      }
                    }
                  }
                  JOINT RightHandPinky1
                  {
                    OFFSET -2.866425 -0.342796 -1.584145
                    CHANNELS 3 Zrotation Yrotation Xrotation
                    JOINT RightHandPinky2
                    {
                      OFFSET -5.091371 -1.332055 -1.772385
                      CHANNELS 3 Zrotation Yrotation Xrotation
                      JOINT RightHandPinky3
                      {
                        OFFSET -3.062664 -4e-06 1e-06
                        CHANNELS 3 Zrotation Yrotation Xrotation
                        JOINT RightHandPinky4
                        {
                          OFFSET -1.546529 4e-06 -2e-06
                          CHANNELS 3 Zrotation Yrotation Xrotation
                          JOINT RightHandPinkyEnd
                          {
                            OFFSET -1.945119 -0.157718 0.057211
                            CHANNELS 3 Zrotation Yrotation Xrotation
                          }
                        }
                      }
                    }
                  }
                }
              }
            }
          }
        }
      }
    }
    JOINT LeftLeg
    {
      OFFSET 10.043214 -8.434526 2.595655
      CHANNELS 3 Zrotation Yrotation Xrotation
      JOINT LeftShin
      {
        OFFSET -1e-06 -43.221752 -0.802913
        CHANNELS 3 Zrotation Yrotation Xrotation
        JOINT LeftFoot
        {
          OFFSET 1e-06 -42.155094 -3.481523
          CHANNELS 3 Zrotation Yrotation Xrotation
          JOINT LeftToeBase
          {
            OFFSET 0.0 -5.059472 13.231529
            CHANNELS 3 Zrotation Yrotation Xrotation
            JOINT LeftToeEnd
            {
              OFFSET -0.009607 -1.647619 6.513017
              CHANNELS 3 Zrotation Yrotation Xrotation
            }
          }
        }
      }
    }
    JOINT RightLeg
    {
      OFFSET -10.047278 -8.29526 2.620317
      CHANNELS 3 Zrotation Yrotation Xrotation
      JOINT RightShin
      {
        OFFSET 1e-06 -43.362206 -0.805556
        CHANNELS 3 Zrotation Yrotation Xrotation
        JOINT RightFoot
        {
          OFFSET 2e-06 -42.117393 -3.478398
          CHANNELS 3 Zrotation Yrotation Xrotation
          JOINT RightToeBase
          {
            OFFSET -0.0 -5.079609 13.284196
            CHANNELS 3 Zrotation Yrotation Xrotation
            JOINT RightToeEnd
            {
              OFFSET 0.009532 -1.634378 6.460591
              CHANNELS 3 Zrotation Yrotation Xrotation
            }
          }
        }
      }
    }
  }
}
MOTION
Frames: 4
Frame Time: 0.03333333333333333
0.0 0.0 0.0 0.0 -0.0 0.0 -0.636941 94.014076 53.046398 -14.612669 -3.174588 -3.404333 4.150238 -0.35149 2.0534 0.77997 -2.439173 -3.892609 11.162719 -3.896615 14.368705 6.877372 1.684976 -14.583386 -0.248018 3.820566 -3.432781 -7.954267 8.026 -7.073214 7.7e-05 -2.2e-05 6e-06 -0.04208 -0.193102 -0.022984 0.766719 -3.939795 -10.67424 -0.84905 3.554461 -10.612697 -2.120137 -6.597523 19.340481 -62.366692 11.868566 13.980295 -151.685013 -86.963066 151.143799 25.091305 -1.433264 6.383988 -5.882106 9.861284 0.702589 -10.936872 -0.360575 7.156204 -1e-06 8.774824 -3e-06 -15.54737 18.594805 6.568371 -1.844033 2.498505 -2.507277 -10.163601 4.678945 4.621105 -20.976025 -0.0 2e-06 -21.226288 2.451698 -3.594 -0.0 -5e-06 0.0 -1.362681 2.240798 -0.746322 -21.334913 0.584909 3.008321 -13.821213 -4e-06 1e-06 -23.887173 -0.249078 -0.839485 -60.3298 2.642839 -1.080283 -0.294026 1.679688 0.833255 -14.218205 0.093215 1.300578 -34.212048 -0.287563 0.967167 -20.033215 0.964538 1.212842 0.0 -2e-06 0.0 -3.440388 0.788233 0.501655 -15.928187 -3.167308 2.999705 -6.338827 -0.0 0.0 -18.123449 3.648184 -4.905672 -3e-06 2e-06 -2e-06 28.142431 6.825761 19.035316 35.357731 10.249027 5.669032 175.223236 78.349319 175.291962 -21.017111 17.143063 -0.148309 2.243542 -5.255036 -3.180157 14.28289 -0.826594 6.952499 -1e-06 -12.690601 -0.0 15.940208 -17.123226 2.770078 1.665666 -1.955922 -2.878299 4.727798 -4.170585 4.993921 11.020524 4e-06 -3e-06 12.109052 -3.735714 -2.866783 3e-06 1e-06 -0.0 1.291985 -1.928549 -1.498088 14.800125 0.567469 3.865605 14.242569 -1.341736 -6.660658 19.631966 0.143926 -0.648245 50.452145 -0.713781 -5.633406 0.353029 -1.51115 -0.03194 20.222788 3.684309 2.316627 18.78727 7e-06 -2e-06 10.751625 -0.479867 1.397905 1e-06 0.0 -1e-06 3.273807 0.305946 -0.58011 21.486809 11.830372 2.266133 8.162926 2e-06 -1e-06 18.399078 -3.798982 -4.940576 4e-06 -0.0 -1e-06 24.241024 11.249568 -10.346902 -0.352143 -0.652886 79.621735 5.277514 14.466313 17.085291 2.181325 -2.047971 -3.592098 0.0 -0.0 1e-06 14.89849 -1.792883 -9.270411 -0.036774 -0.295459 32.829529 2.292895 -4.55029 -16.537848 -1.377458 1.003915 0.536998 0.0 0.0 -1e-06 
0.0 0.0 0.0 0.0 -0.0 0.0 -1.134457 93.593048 55.616497 -13.473221 -2.396299 -4.142931 3.896109 0.020292 3.110869 0.600058 -1.85305 -3.40387 10.446506 -3.25918 14.584184 7.049367 1.460662 -15.433837 -0.29493 2.996189 -3.37433 -7.858479 7.451282 -10.961809 7.7e-05 -2.2e-05 6e-06 -0.060134 -0.199525 -0.011321 0.747626 -3.968449 -10.70621 -0.868245 3.564747 -10.639235 -0.793264 -6.553602 18.4711 -66.491386 9.564939 13.442029 -123.59024 -88.253479 123.061348 25.259365 1.325253 11.698067 -5.88211 9.861289 0.702589 -10.936877 -0.360574 7.156207 1e-06 8.77483 1e-06 -15.429411 18.740715 6.690609 -1.844035 2.498505 -2.507279 -10.163606 4.678947 4.621109 -20.976038 -4e-06 -1e-06 -21.226301 2.451696 -3.594006 1e-06 -5e-06 -1e-06 -1.362682 2.240799 -0.746324 -21.334929 0.584908 3.008322 -13.821222 -3e-06 -0.0 -23.887184 -0.249082 -0.839487 -60.075249 2.935655 -0.837771 -0.294025 1.679688 0.833258 -14.218217 0.093216 1.300579 -34.21207 -0.287569 0.967169 -20.033226 0.964534 1.212846 0.0 -0.0 -1e-06 -3.44039 0.788235 0.501657 -15.928192 -3.167312 2.999707 -6.33883 -1e-06 0.0 -18.123459 3.648184 -4.905676 -4e-06 3e-06 -1e-06 27.817989 8.895585 19.242208 35.539238 15.449685 1.370137 175.105469 78.026367 175.225235 -21.431627 15.943844 -0.986074 2.243543 -5.255038 -3.180159 14.282898 -0.826594 6.952505 -1e-06 -12.690608 -0.0 15.798194 -17.306725 2.910897 1.665667 -1.955922 -2.878299 4.727801 -4.170589 4.993925 11.020534 1e-06 -1e-06 12.109057 -3.735719 -2.866785 1e-06 0.0 -0.0 1.291986 -1.928551 -1.498089 14.800136 0.567467 3.865607 14.242579 -1.341739 -6.660661 19.631975 0.143925 -0.648247 50.331921 -0.934999 -5.700247 0.353029 -1.51115 -0.03194 20.222803 3.68431 2.316631 18.787285 4e-06 -2e-06 10.751634 -0.479868 1.397906 0.0 0.0 -0.0 3.273808 0.305948 -0.580111 21.486824 11.830379 2.266135 8.16293 1e-06 -1e-06 18.399092 -3.798988 -4.940578 3e-06 -1e-06 -1e-06 21.815916 10.836502 -19.256788 -0.227968 -0.161977 90.799423 6.567037 14.139647 17.798288 2.241475 -2.082081 -2.911641 0.0 1e-06 2e-06 13.653285 -3.427248 -7.529878 -0.035108 -0.202023 34.288631 2.413285 -3.623384 -19.02659 -1.366555 0.94715 1.044382 0.0 0.0 -1e-06 
0.0 0.0 0.0 0.0 -0.0 0.0 -1.357874 94.019768 58.678391 -11.009684 -0.752835 -4.298275 3.401366 0.399608 3.7467 0.305393 -0.959418 -3.138971 8.577572 -2.67518 13.880106 6.610403 1.320971 -15.748972 -0.388574 1.996186 -3.280037 -7.159941 5.633563 -13.450585 7.7e-05 -2.3e-05 6e-06 -0.044985 -0.135017 0.031636 0.731236 -3.897808 -10.656672 -0.824349 3.618194 -10.592619 -1.347997 -6.185732 17.3624 -67.536232 6.689889 16.219133 -165.6884 -86.330879 165.401779 19.251394 2.890885 17.381804 -5.88211 9.861289 0.702591 -10.936872 -0.360575 7.156207 -1e-06 8.774828 -1e-06 -15.517915 18.840578 6.57081 -1.844034 2.498506 -2.507279 -10.163603 4.678946 4.62111 -20.97603 -3e-06 1e-06 -21.226295 2.451699 -3.594002 0.0 -6e-06 -2e-06 -1.362682 2.240798 -0.746324 -21.334921 0.584911 3.008323 -13.821218 -2e-06 3e-06 -23.887175 -0.249078 -0.839484 -60.184658 2.945568 -0.453127 -0.294025 1.679688 0.833257 -14.218212 0.093216 1.30058 -34.212063 -0.287564 0.967168 -20.033218 0.964537 1.212843 0.0 -2e-06 1e-06 -3.440389 0.788234 0.501655 -15.928189 -3.16731 2.999707 -6.338829 -1e-06 1e-06 -18.123453 3.648183 -4.905672 -4e-06 2e-06 -2e-06 25.354528 10.371386 19.215433 38.754921 19.152258 -2.671157 175.495605 78.06852 175.478806 -22.376219 14.954052 -1.369569 2.243542 -5.255039 -3.180159 14.282896 -0.826596 6.952507 1e-06 -12.690609 -1e-06 15.715719 -17.586033 3.139118 1.665666 -1.955921 -2.8783 4.7278 -4.170589 4.993925 11.020528 2e-06 1e-06 12.109053 -3.735718 -2.866785 1e-06 1e-06 -0.0 1.291986 -1.92855 -1.498089 14.800132 0.567468 3.865611 14.242573 -1.341738 -6.660659 19.631969 0.143924 -0.648243 49.992161 -1.054117 -5.581476 0.353029 -1.51115 -0.03194 20.222797 3.684309 2.316633 18.787279 2e-06 3e-06 10.751631 -0.479869 1.397909 1e-06 0.0 1e-06 3.273808 0.305949 -0.580109 21.486818 11.830377 2.266139 8.162928 -0.0 1e-06 18.399088 -3.798988 -4.940576 3e-06 0.0 -1e-06 17.362823 10.711779 -27.457392 -0.025502 0.163339 95.700439 6.263198 12.260723 16.304909 2.125185 -2.070602 -2.866102 0.0 1e-06 2e-06 11.107311 -3.998077 -4.406116 -0.070766 -0.034348 32.240841 2.87431 -4.095086 -20.584255 -1.373845 0.898373 1.235978 -0.0 0.0 -1e-06 
0.0 0.0 0.0 0.0 -0.0 0.0 -1.377305 95.276268 62.098545 -7.480546 0.965275 -3.551787 2.676007 0.766744 3.926088 0.01331 0.348829 -3.103299 5.736854 -1.769132 12.383986 5.366956 1.381383 -15.221274 -0.634026 0.640911 -3.247516 -5.908183 2.903706 -15.001621 7.7e-05 -2.3e-05 7e-06 -0.00523 -0.028908 0.05361 0.744996 -3.768231 -10.61483 -0.762247 3.698413 -10.566699 -3.657654 -5.41439 16.182459 -66.94458 3.160343 18.617031 -177.144714 -80.060059 177.157364 10.710434 3.163111 19.163111 -5.882108 9.86129 0.70259 -10.936875 -0.360572 7.156207 -3e-06 8.774828 -2e-06 -15.281294 18.701166 6.657144 -1.844032 2.498505 -2.507277 -10.163601 4.678947 4.621104 -20.976028 2e-06 1e-06 -21.226292 2.4517 -3.594007 -0.0 -7e-06 0.0 -1.362682 2.240798 -0.746323 -21.334917 0.584913 3.008318 -13.821215 2e-06 -0.0 -23.887171 -0.249077 -0.839489 -60.368839 2.77479 -0.230913 -0.294025 1.679688 0.833256 -14.21821 0.093217 1.300578 -34.212055 -0.28756 0.967163 -20.033215 0.964537 1.212839 -0.0 -1e-06 0.0 -3.440387 0.788235 0.501656 -15.928185 -3.167309 2.999705 -6.338826 -0.0 -0.0 -18.123453 3.648185 -4.905675 -4e-06 2e-06 -1e-06 20.317835 11.426744 18.670618 44.834167 20.402737 -5.488118 175.523331 78.424538 175.374863 -23.984457 14.696617 -1.877835 2.243542 -5.25504 -3.18016 14.282896 -0.826593 6.952507 -0.0 -12.690609 -2e-06 15.695387 -17.723461 3.246686 1.665666 -1.955923 -2.878299 4.727801 -4.170589 4.993926 11.020529 3e-06 1e-06 12.109058 -3.735718 -2.866786 1e-06 0.0 0.0 1.291986 -1.92855 -1.49809 14.800134 0.567468 3.865612 14.242577 -1.341738 -6.660662 19.631973 0.143925 -0.648245 49.695984 -1.132624 -5.584948 0.353029 -1.511152 -0.03194 20.222797 3.68431 2.316635 18.787281 4e-06 1e-06 10.751628 -0.479869 1.397907 0.0 -1e-06 0.0 3.273808 0.305947 -0.58011 21.48682 11.830378 2.266138 8.16293 0.0 1e-06 18.399088 -3.798987 -4.940576 4e-06 0.0 -0.0 11.417467 11.353475 -34.037075 0.207047 0.356904 93.90184 5.366733 10.466352 15.044206 1.90083 -2.0048 -2.798674 -0.0 1e-06 2e-06 7.590247 -3.639962 -0.194956 -0.154341 0.089861 26.564062 3.315361 -5.09903 -20.185984 -1.391252 0.853833 0.990278 0.0 0.0 -1e-06 
